<svg width="28" height="28" viewBox="0 0 28 28" fill="none" xmlns="http://www.w3.org/2000/svg">
<path d="M7.5 13.5635C7.5 15.3472 8.22363 16.9658 9.38525 18.1401C9.46777 18.2163 9.55664 18.2163 9.62646 18.1274L9.91211 17.8101C9.98828 17.7212 9.98193 17.645 9.90576 17.5625C8.90283 16.5278 8.27441 15.1123 8.27441 13.5635C8.27441 10.4404 10.8643 7.84424 14 7.84424C17.1357 7.84424 19.7256 10.4404 19.7256 13.5635C19.7256 15.1123 19.0972 16.5278 18.0942 17.5625C18.0181 17.645 18.0117 17.7212 18.0879 17.8101L18.3735 18.1274C18.4434 18.2163 18.5322 18.2163 18.6147 18.1338C19.7764 16.9658 20.5 15.3472 20.5 13.5635C20.5 10.0024 17.5864 7.06348 14 7.06348C10.4136 7.06348 7.5 10.0024 7.5 13.5635ZM9.34717 13.5635C9.34717 14.7949 9.82324 15.9058 10.6104 16.7437C10.6929 16.8325 10.7817 16.8262 10.8579 16.7437L11.1436 16.4263C11.2261 16.3438 11.2134 16.2676 11.1372 16.1787C10.5088 15.4868 10.1279 14.5728 10.1279 13.5635C10.1279 11.4497 11.8735 9.69141 14 9.69141C16.1265 9.69141 17.8721 11.4497 17.8721 13.5635C17.8721 14.5728 17.4912 15.4868 16.8628 16.1724C16.7866 16.2612 16.7739 16.3438 16.8564 16.4199L17.1484 16.7437C17.2183 16.8262 17.3135 16.8325 17.3896 16.7437C18.1704 15.9058 18.6528 14.7949 18.6528 13.5635C18.6528 11.0117 16.5645 8.91064 14 8.91064C11.4355 8.91064 9.34717 11.0117 9.34717 13.5635ZM11.1943 13.5635C11.1943 14.2363 11.4292 14.8521 11.8354 15.3472C11.9053 15.4297 11.9941 15.4297 12.0767 15.3408L12.375 15.0361C12.4512 14.9536 12.4448 14.8711 12.3877 14.7822C12.1274 14.4458 11.9751 14.0205 11.9751 13.5635C11.9751 12.459 12.8955 11.5386 14 11.5386C15.1045 11.5386 16.0249 12.459 16.0249 13.5635C16.0249 14.0205 15.8726 14.4458 15.6123 14.7822C15.5488 14.8711 15.5425 14.9536 15.625 15.0361L15.9233 15.3472C15.9995 15.4297 16.0947 15.436 16.1646 15.3408C16.5708 14.8521 16.8057 14.2363 16.8057 13.5635C16.8057 12.0273 15.5425 10.7578 14 10.7578C12.4575 10.7578 11.1943 12.0273 11.1943 13.5635ZM9.89307 19.3271C9.69629 19.5366 9.81689 19.854 10.1152 19.854H17.8721C18.1704 19.854 18.291 19.5366 18.1006 19.3271L14.2666 14.9917C14.1143 14.833 13.873 14.833 13.7207 14.9917L9.89307 19.3271Z" fill="black" fill-opacity="0.5"/>
</svg>
