<svg width="14" height="17" viewBox="0 0 14 17" fill="none" xmlns="http://www.w3.org/2000/svg">
<path d="M9.55664 2.71387C10.063 2.09961 10.4199 1.26123 10.4199 0.414551C10.4199 0.29834 10.4116 0.182129 10.395 0.0908203C9.56494 0.124023 8.56885 0.638672 7.97949 1.33594C7.50635 1.86719 7.07471 2.71387 7.07471 3.56055C7.07471 3.69336 7.09961 3.81787 7.10791 3.85938C7.15771 3.86768 7.24072 3.88428 7.33203 3.88428C8.0708 3.88428 9.00049 3.38623 9.55664 2.71387ZM10.1377 4.05859C8.90088 4.05859 7.88818 4.81396 7.24072 4.81396C6.55176 4.81396 5.65527 4.1084 4.57617 4.1084C2.52588 4.1084 0.450684 5.80176 0.450684 8.98926C0.450684 10.9814 1.21436 13.0815 2.16895 14.4346C2.98242 15.5801 3.69629 16.5181 4.72559 16.5181C5.73828 16.5181 6.18652 15.8457 7.44824 15.8457C8.72656 15.8457 9.01709 16.5015 10.1377 16.5015C11.25 16.5015 11.9888 15.4805 12.6943 14.4761C13.4746 13.3223 13.8066 12.2017 13.8149 12.1436C13.7485 12.127 11.6235 11.2554 11.6235 8.82324C11.6235 6.71484 13.292 5.76855 13.3916 5.69385C12.2876 4.1084 10.6025 4.05859 10.1377 4.05859Z" fill="white"/>
</svg>
