<svg width="16" height="16" viewBox="0 0 16 16" fill="none" xmlns="http://www.w3.org/2000/svg">
<path d="M8.46729 2.24023C8.46729 1.98779 8.25244 1.77295 7.99463 1.77295C7.74219 1.77295 7.52734 1.98779 7.52734 2.24023V3.36816C7.52734 3.62061 7.74219 3.83545 7.99463 3.83545C8.25244 3.83545 8.46729 3.62061 8.46729 3.36816V2.24023ZM10.6479 4.28662C10.4707 4.46924 10.4707 4.77002 10.6479 4.94727C10.8306 5.12988 11.1313 5.13525 11.314 4.94727L12.1143 4.14697C12.2969 3.96436 12.2969 3.66357 12.1143 3.48096C11.937 3.30371 11.6362 3.30371 11.459 3.48096L10.6479 4.28662ZM4.67529 4.94727C4.85791 5.12988 5.15869 5.12988 5.33594 4.94727C5.51855 4.77539 5.51855 4.46387 5.34131 4.28662L4.54102 3.48096C4.36914 3.30908 4.06299 3.30371 3.88037 3.48096C3.70312 3.6582 3.70312 3.96436 3.875 4.1416L4.67529 4.94727ZM7.99463 4.86133C6.49609 4.86133 5.25537 6.10205 5.25537 7.60059C5.25537 9.09912 6.49609 10.3452 7.99463 10.3452C9.48779 10.3452 10.7285 9.09912 10.7285 7.60059C10.7285 6.10205 9.48779 4.86133 7.99463 4.86133ZM13.3389 8.06787C13.5967 8.06787 13.8115 7.85303 13.8115 7.60059C13.8115 7.34814 13.5967 7.1333 13.3389 7.1333H12.2163C11.9639 7.1333 11.749 7.34814 11.749 7.60059C11.749 7.85303 11.9639 8.06787 12.2163 8.06787H13.3389ZM2.65039 7.1333C2.39795 7.1333 2.18311 7.34814 2.18311 7.60059C2.18311 7.85303 2.39795 8.06787 2.65039 8.06787H3.77295C4.03076 8.06787 4.24561 7.85303 4.24561 7.60059C4.24561 7.34814 4.03076 7.1333 3.77295 7.1333H2.65039ZM11.3086 10.2593C11.1313 10.082 10.8306 10.082 10.6479 10.2593C10.4707 10.4365 10.4707 10.7373 10.6479 10.9199L11.459 11.7256C11.6362 11.9028 11.937 11.8975 12.1143 11.7202C12.2969 11.543 12.2969 11.2422 12.1143 11.0596L11.3086 10.2593ZM3.875 11.0542C3.69775 11.2314 3.69775 11.5376 3.86963 11.7148C4.04688 11.8921 4.35303 11.8975 4.53564 11.7202L5.33594 10.9199C5.51855 10.7427 5.51855 10.4419 5.34131 10.2593C5.16406 10.082 4.85791 10.082 4.67529 10.2593L3.875 11.0542ZM8.46729 11.833C8.46729 11.5806 8.25244 11.3657 7.99463 11.3657C7.74219 11.3657 7.52734 11.5806 7.52734 11.833V12.9609C7.52734 13.2134 7.74219 13.4282 7.99463 13.4282C8.25244 13.4282 8.46729 13.2134 8.46729 12.9609V11.833Z" fill="black" fill-opacity="0.1"/>
</svg>
