<svg width="12" height="12" viewBox="0 0 12 12" fill="none" xmlns="http://www.w3.org/2000/svg">
<path d="M9.13965 6.34961C9.13477 6.17871 9.07129 6.03223 8.93945 5.90039L5.14062 2.18457C5.02832 2.07715 4.89648 2.01855 4.73535 2.01855C4.4082 2.01855 4.1543 2.27246 4.1543 2.59961C4.1543 2.75586 4.21777 2.90234 4.33008 3.01465L7.74805 6.34961L4.33008 9.68457C4.21777 9.79688 4.1543 9.93848 4.1543 10.0996C4.1543 10.4268 4.4082 10.6807 4.73535 10.6807C4.8916 10.6807 5.02832 10.6221 5.14062 10.5146L8.93945 6.79395C9.07617 6.66699 9.13965 6.52051 9.13965 6.34961Z" fill="black" fill-opacity="0.26"/>
</svg>
