<svg width="17" height="16" viewBox="0 0 17 16" fill="none" xmlns="http://www.w3.org/2000/svg">
<path d="M1.99512 11.8491C2.21533 11.8491 2.39795 11.7793 2.61279 11.6504L8.08594 8.42773C8.38135 8.25586 8.54248 8.0625 8.60156 7.83691V10.9307C8.60156 11.5269 8.95605 11.8491 9.375 11.8491C9.59521 11.8491 9.77783 11.7793 9.99268 11.6504L15.4712 8.42773C15.8472 8.20215 16.0137 7.93896 16.0137 7.62744C16.0137 7.32129 15.8472 7.05811 15.4712 6.83252L9.99268 3.60986C9.77783 3.48096 9.59521 3.41113 9.375 3.41113C8.95605 3.41113 8.60156 3.7334 8.60156 4.32959V7.42334C8.54248 7.19775 8.38135 7.00439 8.08594 6.83252L2.61279 3.60986C2.39258 3.48096 2.21533 3.41113 1.99512 3.41113C1.57617 3.41113 1.22168 3.7334 1.22168 4.32959V10.9307C1.22168 11.5269 1.57617 11.8491 1.99512 11.8491Z" fill="black" fill-opacity="0.26"/>
</svg>
