<svg width="32" height="32" viewBox="0 0 32 32" fill="none" xmlns="http://www.w3.org/2000/svg">
<g id="Icons/System/Control">
<path id="Icon" d="M11.9097 15.7329H21.0903C23.2319 15.7329 24.9751 14.2056 24.9751 11.9478C24.9751 9.68994 23.2319 8.1626 21.0903 8.1626H11.9097C9.76807 8.1626 8.0166 9.68994 8.0166 11.9478C8.0166 14.2056 9.76807 15.7329 11.9097 15.7329ZM11.9097 14.4795C10.5151 14.4795 9.27002 13.4585 9.27002 11.9478C9.27002 10.437 10.5151 9.41602 11.9097 9.41602H21.0903C22.4766 9.41602 23.7217 10.437 23.7217 11.9478C23.7217 13.4585 22.4766 14.4795 21.0903 14.4795H11.9097ZM11.9097 13.915C13.0054 13.9233 13.877 13.0269 13.8853 11.9312C13.8936 10.8438 13.0054 9.97217 11.9097 9.97217C10.814 9.97217 9.94238 10.8521 9.94238 11.9395C9.94238 13.0352 10.814 13.9067 11.9097 13.915ZM11.5693 23.8345H21.4307C23.3979 23.8345 24.9751 22.4565 24.9751 20.4229C24.9751 18.3892 23.3979 17.0112 21.4307 17.0112H11.5693C9.60205 17.0112 8.0166 18.3892 8.0166 20.4229C8.0166 22.4565 9.60205 23.8345 11.5693 23.8345ZM21.6382 22.5811C20.4429 22.5728 19.4883 21.6099 19.4883 20.4146C19.4883 19.2275 20.4429 18.2646 21.6382 18.2646C22.8335 18.2646 23.8047 19.2192 23.7964 20.4062C23.7881 21.6099 22.8335 22.5894 21.6382 22.5811Z" fill="white"/>
</g>
</svg>
