<svg width="24" height="24" viewBox="0 0 24 24" fill="none" xmlns="http://www.w3.org/2000/svg">
<path d="M12 19.9326C16.0869 19.9326 19.4707 16.5415 19.4707 12.4619C19.4707 8.375 16.0796 4.99121 11.9927 4.99121C7.91309 4.99121 4.5293 8.375 4.5293 12.4619C4.5293 16.5415 7.92041 19.9326 12 19.9326ZM12 14.9595C9.80273 14.9595 8.10352 15.7432 7.36377 16.6221C6.375 15.5234 5.78174 14.0659 5.78174 12.4619C5.78174 9.00488 8.53564 6.23633 11.9927 6.23633C15.4497 6.23633 18.2183 9.00488 18.2256 12.4619C18.2329 14.0659 17.6323 15.5234 16.6436 16.6294C15.9038 15.7505 14.2046 14.9595 12 14.9595ZM12 13.7144C13.4062 13.729 14.5122 12.5278 14.5122 10.9531C14.5122 9.47363 13.4062 8.24316 12 8.24316C10.5938 8.24316 9.48047 9.47363 9.48779 10.9531C9.49512 12.5278 10.5938 13.6997 12 13.7144Z" fill="white"/>
</svg>
