<svg width="25" height="24" viewBox="0 0 25 24" fill="none" xmlns="http://www.w3.org/2000/svg">
<path d="M13.022 7.02539C13.022 6.60205 12.6733 6.24512 12.25 6.24512C11.8267 6.24512 11.4697 6.60205 11.4697 7.02539V9.52393C11.4697 9.93896 11.8267 10.2876 12.25 10.2876C12.6733 10.2876 13.022 9.93896 13.022 9.52393V7.02539ZM8.0249 11.9478C8.32373 11.6489 8.31543 11.1675 8.0249 10.8687L6.26514 9.09229C5.97461 8.80176 5.47656 8.79346 5.17773 9.08398C4.87891 9.38281 4.87891 9.87256 5.18604 10.1714L6.9375 11.9478C7.22803 12.2549 7.72607 12.2383 8.0249 11.9478ZM16.3755 12.0391C16.666 12.3379 17.1724 12.3379 17.4629 12.0391L19.231 10.2627C19.5215 9.96387 19.5298 9.47412 19.231 9.17529C18.9404 8.88477 18.4507 8.87646 18.1436 9.17529L16.3755 10.9517C16.0684 11.2505 16.0684 11.7402 16.3755 12.0391ZM3.10254 15.3926C2.6958 15.3926 2.33887 15.7412 2.33887 16.1562C2.33887 16.5796 2.6958 16.9365 3.10254 16.9365H5.60938C6.03271 16.9365 6.38965 16.5796 6.38965 16.1562C6.38965 15.7412 6.03271 15.3926 5.60938 15.3926H3.10254ZM18.1187 16.1562C18.1187 16.5796 18.4673 16.9365 18.8906 16.9365H21.3892C21.8042 16.9365 22.1611 16.5796 22.1611 16.1562C22.1611 15.7412 21.8042 15.3926 21.3892 15.3926H18.8906C18.4673 15.3926 18.1187 15.7412 18.1187 16.1562ZM9.23682 16.9199H15.2549C15.6616 16.9199 16.0103 16.5796 16.0103 16.1812C16.0103 15.7744 15.6616 15.4424 15.2549 15.4424H9.23682C8.82178 15.4424 8.47314 15.7744 8.47314 16.1812C8.47314 16.5796 8.82178 16.9199 9.23682 16.9199Z" fill="black" fill-opacity="0.5"/>
</svg>
