<svg width="25" height="24" viewBox="0 0 25 24" fill="none" xmlns="http://www.w3.org/2000/svg">
<path d="M6.57422 16.6211H7.99365V17.8911C7.99365 19.6011 8.85693 20.4644 10.6001 20.4644H18.9341C20.6606 20.4644 21.5322 19.6011 21.5322 17.8911V9.49072C21.5322 7.78076 20.6606 6.91748 18.9341 6.91748H17.5063V5.64746C17.5063 3.9375 16.6348 3.07422 14.9082 3.07422H6.57422C4.83105 3.07422 3.96777 3.9375 3.96777 5.64746V14.0479C3.96777 15.7578 4.83105 16.6211 6.57422 16.6211ZM6.59082 15.2847C5.76074 15.2847 5.3042 14.8364 5.3042 13.9731V5.72217C5.3042 4.85889 5.76074 4.41064 6.59082 4.41064H14.8833C15.7051 4.41064 16.1699 4.85889 16.1699 5.72217V6.91748H10.6001C8.85693 6.91748 7.99365 7.77246 7.99365 9.49072V15.2847H6.59082ZM10.6167 19.1279C9.79492 19.1279 9.33008 18.6797 9.33008 17.8164V9.56543C9.33008 8.70215 9.79492 8.25391 10.6167 8.25391H18.9092C19.731 8.25391 20.1958 8.70215 20.1958 9.56543V17.8164C20.1958 18.6797 19.731 19.1279 18.9092 19.1279H10.6167Z" fill="black" fill-opacity="0.5"/>
</svg>
