<svg width="28" height="28" viewBox="0 0 28 28" fill="none" xmlns="http://www.w3.org/2000/svg">
<path d="M22.2646 13.7983C22.2646 11.6719 21.4648 9.72314 20.0811 8.27588C19.8525 8.03467 19.5415 8.06006 19.3638 8.25684C19.1797 8.45996 19.2178 8.74561 19.4336 8.97412C20.646 10.2437 21.3125 11.9448 21.3125 13.7983C21.3125 15.6519 20.646 17.353 19.4336 18.6226C19.2178 18.8447 19.1797 19.1367 19.3638 19.3335C19.5415 19.5366 19.8525 19.562 20.0811 19.3208C21.4648 17.8735 22.2646 15.9248 22.2646 13.7983ZM5.729 13.7983C5.729 15.9248 6.52881 17.8735 7.9126 19.3208C8.14111 19.562 8.45215 19.5366 8.62988 19.3335C8.81396 19.1367 8.77588 18.8447 8.56006 18.6226C7.34131 17.353 6.68115 15.6519 6.68115 13.7983C6.68115 11.9448 7.34131 10.2437 8.56006 8.97412C8.77588 8.74561 8.81396 8.45996 8.62988 8.25684C8.45215 8.06006 8.14111 8.03467 7.9126 8.27588C6.52881 9.72314 5.729 11.6719 5.729 13.7983ZM8.00146 13.7983C8.00146 15.3027 8.54102 16.7056 9.51221 17.7529C9.73438 18.0005 10.0581 18.0068 10.2485 17.7847C10.4326 17.5752 10.3818 17.3022 10.166 17.0674C9.37891 16.1851 8.94727 15.0425 8.94727 13.7983C8.94727 12.5542 9.37891 11.4116 10.166 10.5293C10.3818 10.2944 10.4326 10.0215 10.2485 9.80566C10.0581 9.58984 9.73438 9.58984 9.51221 9.8374C8.54102 10.8911 8.00146 12.2876 8.00146 13.7983ZM19.9922 13.7983C19.9922 12.2876 19.4526 10.8911 18.4814 9.8374C18.2593 9.58984 17.9355 9.58984 17.7451 9.80566C17.5547 10.0215 17.6118 10.2944 17.8213 10.5293C18.6147 11.4116 19.0464 12.5542 19.0464 13.7983C19.0464 15.0425 18.6147 16.1851 17.8213 17.0674C17.6118 17.3022 17.5547 17.5752 17.7451 17.7847C17.9355 18.0068 18.2593 18.0005 18.4814 17.7529C19.4526 16.7056 19.9922 15.3027 19.9922 13.7983ZM10.2676 13.7983C10.2676 14.6489 10.5596 15.4487 11.0674 16.0771C11.2769 16.3438 11.626 16.3438 11.8164 16.1279C12.0068 15.9121 11.9243 15.6582 11.7402 15.3979C11.3975 14.9663 11.2197 14.4077 11.2197 13.7983C11.2197 13.189 11.3975 12.6304 11.7402 12.1924C11.9243 11.9385 12.0068 11.6846 11.8164 11.4688C11.626 11.2529 11.2769 11.2529 11.0674 11.5132C10.5596 12.1416 10.2676 12.9414 10.2676 13.7983ZM17.7261 13.7983C17.7261 12.9414 17.4341 12.1416 16.9263 11.5132C16.7168 11.2529 16.3677 11.2529 16.1772 11.4688C15.9868 11.6846 16.063 11.9385 16.2534 12.1924C16.5962 12.6304 16.7739 13.189 16.7739 13.7983C16.7739 14.4077 16.5962 14.9663 16.2534 15.3979C16.063 15.6582 15.9868 15.9121 16.1772 16.1279C16.3677 16.3438 16.7168 16.3438 16.9263 16.0771C17.4341 15.4487 17.7261 14.6489 17.7261 13.7983ZM13.9937 15.2773C14.7871 15.2773 15.4727 14.6045 15.4727 13.792C15.4727 12.9795 14.7871 12.313 13.9937 12.313C13.2002 12.313 12.521 12.9795 12.521 13.792C12.521 14.6045 13.2002 15.2773 13.9937 15.2773Z" fill="black" fill-opacity="0.5"/>
</svg>
