<svg width="28" height="28" viewBox="0 0 28 28" fill="none" xmlns="http://www.w3.org/2000/svg">
<rect x="3" y="3" width="22" height="22" rx="11" fill="black" fill-opacity="0.1"/>
<path d="M8.43018 14.3037C8.43018 15.8291 9.04785 17.2148 10.0415 18.2192C10.1382 18.3159 10.2456 18.3159 10.3315 18.2085L10.5894 17.9185C10.6753 17.8164 10.6699 17.7305 10.584 17.6392C9.74609 16.7744 9.2251 15.5928 9.2251 14.3037C9.2251 11.6987 11.3843 9.53418 14 9.53418C16.6157 9.53418 18.7749 11.6987 18.7749 14.3037C18.7749 15.5928 18.2539 16.7744 17.4214 17.6338C17.3301 17.7305 17.3247 17.8164 17.4106 17.9185L17.6685 18.2085C17.7544 18.3159 17.8618 18.3159 17.9585 18.2192C18.9521 17.2148 19.5698 15.8291 19.5698 14.3037C19.5698 11.2529 17.0723 8.73389 14 8.73389C10.9277 8.73389 8.43018 11.2529 8.43018 14.3037ZM9.99316 14.3037C9.99316 15.3618 10.4014 16.3179 11.0728 17.0376C11.1748 17.145 11.2822 17.1343 11.3735 17.0376L11.6313 16.7529C11.7227 16.6616 11.7173 16.5703 11.626 16.4683C11.105 15.8882 10.7935 15.1362 10.7935 14.3037C10.7935 12.5527 12.2383 11.0972 14 11.0972C15.7617 11.0972 17.2065 12.5527 17.2065 14.3037C17.2065 15.1362 16.895 15.8882 16.374 16.4575C16.2881 16.5649 16.2773 16.6562 16.3687 16.7529L16.6318 17.0376C16.7231 17.1343 16.8306 17.145 16.9272 17.0376C17.5986 16.3179 18.0068 15.3618 18.0068 14.3037C18.0068 12.1069 16.2075 10.2969 14 10.2969C11.7925 10.2969 9.99316 12.1069 9.99316 14.3037ZM11.5562 14.3037C11.5562 14.8892 11.7603 15.4209 12.1094 15.8506C12.1953 15.958 12.3027 15.9634 12.4048 15.8506L12.6733 15.5767C12.7593 15.4854 12.7593 15.394 12.6895 15.292C12.48 15.0181 12.3564 14.6689 12.3564 14.3037C12.3564 13.4067 13.103 12.6602 14 12.6602C14.897 12.6602 15.6436 13.4067 15.6436 14.3037C15.6436 14.6689 15.52 15.0181 15.3105 15.2866C15.2407 15.394 15.2407 15.4854 15.3267 15.5767L15.6006 15.856C15.6973 15.9634 15.8047 15.958 15.8906 15.8452C16.2397 15.4209 16.4438 14.8892 16.4438 14.3037C16.4438 12.9663 15.3481 11.8599 14 11.8599C12.6572 11.8599 11.5562 12.9663 11.5562 14.3037ZM10.4229 19.2129C10.2456 19.4062 10.3584 19.6963 10.627 19.6963H17.3677C17.6362 19.6963 17.749 19.4062 17.5718 19.2129L14.2471 15.4478C14.1128 15.3027 13.8818 15.3027 13.7476 15.4478L10.4229 19.2129Z" fill="black" fill-opacity="0.5"/>
</svg>
