<svg width="16" height="16" viewBox="0 0 16 16" fill="none" xmlns="http://www.w3.org/2000/svg">
<path d="M10.5728 9.02393V3.52393C10.5728 3.1748 10.3203 2.89014 9.95508 2.89014C9.70264 2.89014 9.53613 3.00293 9.25684 3.26074L7.09766 5.26416C7.0708 5.28564 7.03857 5.30713 7.00635 5.30713H6.84521L10.5728 9.02393ZM12.4258 12.9287C12.5869 13.0898 12.8555 13.0898 13.0112 12.9287C13.1724 12.7622 13.1724 12.5044 13.0112 12.3433L3.81592 3.14795C3.65479 2.98682 3.38623 2.98682 3.2251 3.14795C3.06396 3.30371 3.06396 3.57764 3.2251 3.7334L12.4258 12.9287ZM5.27148 9.80811H6.80225C6.85596 9.80811 6.89893 9.82422 6.93652 9.85645L9.25684 12.0264C9.50928 12.2627 9.71338 12.3647 9.96045 12.3647C10.2397 12.3647 10.4492 12.2251 10.5352 11.9189L4.41211 5.80127C4.25635 5.97852 4.17578 6.24707 4.17578 6.60693V8.66406C4.17578 9.44287 4.54102 9.80811 5.27148 9.80811Z" fill="black" fill-opacity="0.1"/>
</svg>
