<svg width="28" height="28" viewBox="0 0 28 28" fill="none" xmlns="http://www.w3.org/2000/svg">
<path d="M7.65234 12.9668C7.77295 13.0938 7.95703 13.0874 8.07764 12.9604C9.63916 11.3037 11.6958 10.4277 14 10.4277C16.3169 10.4277 18.3862 11.3101 19.9351 12.9668C20.0493 13.0811 20.2271 13.0811 20.3477 12.9541L21.2236 12.0781C21.3315 11.9639 21.3315 11.8242 21.2427 11.7163C19.751 9.87549 16.9453 8.52344 14 8.52344C11.061 8.52344 8.24268 9.87549 6.75732 11.7163C6.66846 11.8242 6.66846 11.9639 6.77637 12.0781L7.65234 12.9668ZM10.293 15.6201C10.4263 15.7534 10.5977 15.7344 10.7246 15.5947C11.4863 14.7505 12.7305 14.1348 14 14.1411C15.2886 14.1348 16.5264 14.7695 17.3008 15.6138C17.4214 15.7471 17.5864 15.7471 17.7134 15.6138L18.6973 14.6362C18.8052 14.5347 18.8115 14.395 18.7163 14.2808C17.7578 13.1064 15.9805 12.2241 14 12.2241C12.0195 12.2241 10.2485 13.1064 9.28369 14.2808C9.19482 14.395 9.20117 14.522 9.30908 14.6362L10.293 15.6201ZM14 19.0732C14.1396 19.0732 14.2603 19.0098 14.5078 18.7686L16.0566 17.2832C16.1582 17.188 16.1772 17.0483 16.0947 16.9341C15.6758 16.4009 14.895 15.9375 14 15.9375C13.0859 15.9375 12.2988 16.4199 11.8926 16.9722C11.8228 17.0737 11.8545 17.188 11.9497 17.2832L13.4922 18.7686C13.7397 19.0034 13.8604 19.0732 14 19.0732Z" fill="white"/>
</svg>
