<?xml version="1.0" encoding="UTF-8" standalone="no"?>
<!-- Generator: Adobe Illustrator 25.3.1, SVG Export Plug-In . SVG Version: 6.00 Build 0)  -->

<svg
   version="1.1"
   id="logo"
   x="0px"
   y="0px"
   viewBox="0 0 599.99999 185.79612"
   xml:space="preserve"
   sodipodi:docname="Logo_SNCF_Connect.svg"
   width="600"
   height="185.79611"
   inkscape:version="1.1.1 (c3084ef, 2021-09-22)"
   xmlns:inkscape="http://www.inkscape.org/namespaces/inkscape"
   xmlns:sodipodi="http://sodipodi.sourceforge.net/DTD/sodipodi-0.dtd"
   xmlns="http://www.w3.org/2000/svg"
   xmlns:svg="http://www.w3.org/2000/svg"><defs
   id="defs836" /><sodipodi:namedview
   id="namedview834"
   pagecolor="#ffffff"
   bordercolor="#666666"
   borderopacity="1.0"
   inkscape:pageshadow="2"
   inkscape:pageopacity="0.0"
   inkscape:pagecheckerboard="0"
   showgrid="false"
   inkscape:zoom="1.6719791"
   inkscape:cx="261.66594"
   inkscape:cy="81.340728"
   inkscape:window-width="1920"
   inkscape:window-height="1080"
   inkscape:window-x="0"
   inkscape:window-y="0"
   inkscape:window-maximized="0"
   inkscape:current-layer="logo" />
<style
   type="text/css"
   id="style824">
	.st0{fill:#0088CE;}
	.st1{fill:#FFFFFF;}
	.st2{fill:#0C131F;}
</style>
<g
   id="g831"
   transform="matrix(1.1454754,0,0,1.1454754,-95.418101,-95.418101)">
	<path
   id="BOUTON"
   class="st0"
   d="m 219.2,83.3 h -94.3 c -23,0 -41.6,18.6 -41.6,41.6 0,23 18.6,41.6 41.6,41.6 h 94.3 c 23,0 41.6,-18.6 41.6,-41.6 0.1,-23 -18.6,-41.6 -41.6,-41.6 z m -1.6,71.9 c -16.7,0 -30.3,-13.6 -30.3,-30.3 0,-16.7 13.6,-30.3 30.3,-30.3 16.7,0 30.3,13.6 30.3,30.3 0,16.7 -13.6,30.3 -30.3,30.3 z" />
	<path
   id="BOUTON_PONT_BLANC"
   class="st1"
   d="m 217.6,155.2 c -16.7,0 -30.3,-13.6 -30.3,-30.3 0,-16.7 13.6,-30.3 30.3,-30.3 16.7,0 30.3,13.6 30.3,30.3 0,16.7 -13.6,30.3 -30.3,30.3 z" />
	<path
   id="SNCF"
   class="st0"
   d="m 101.8,206.1 c -3.6,0 -7.3,1.3 -7.3,4.9 0,3.5 3.5,4.3 9.8,5.8 6.7,1.6 14.6,4.6 14.6,13.6 0,11 -8.9,15.1 -18.8,15.1 -5,0 -10.7,-1.4 -14.2,-4.1 -2,-1.5 -2.5,-3.2 -2.5,-4.5 0,-2.6 2,-4.8 4.7,-4.8 1.2,0 2.4,0.4 3.9,1.5 2.6,2.1 5.5,3.2 8.7,3.2 3.3,0 7.3,-1.3 7.3,-5.4 0,-3.8 -3.6,-4.8 -10.5,-6.4 -6.8,-1.7 -13.5,-4.5 -13.5,-13 0,-10.1 9.1,-14.4 18,-14.4 4.5,0 9.3,1.1 12.5,3.5 2.2,1.6 2.7,3.1 2.7,4.4 0,2.5 -1.8,4.6 -4.6,4.6 -1,0 -2.1,-0.4 -3.3,-1.3 -2.4,-2 -4.8,-2.7 -7.5,-2.7 z m 26.9,-2.1 c 0,-5.1 3.7,-5.9 5.4,-5.9 1.7,0 5.4,0.9 5.4,5.9 v 2.2 h 0.2 c 2,-4.5 7.4,-8.6 14,-8.6 11.8,0 16.7,9.1 16.7,18.3 v 22.8 c 0,5.4 -3.8,6.3 -5.6,6.3 -1.9,0 -5.7,-0.9 -5.7,-6.3 v -19.6 c 0,-5.4 -1.2,-12.1 -8.5,-12.1 -7.2,0 -10.6,6.2 -10.6,12.2 v 19.4 c 0,5.4 -3.8,6.3 -5.7,6.3 -1.9,0 -5.6,-0.9 -5.6,-6.3 z m 86.8,28.6 c 2.9,0 4.6,2.2 4.6,4.5 0,1.6 -0.5,3.2 -3,5 -3.2,2.3 -8.2,3.3 -12.1,3.3 -13.5,0 -24.1,-8.9 -24.1,-23.9 0,-14.7 10.9,-23.9 24.2,-23.9 4.3,0 8.7,1 11.9,3.2 2.6,1.8 3.2,3.6 3.2,4.9 0,2.5 -1.9,4.9 -4.9,4.9 -1,0 -2.1,-0.3 -3.8,-1.5 -1.5,-1.1 -3.7,-2.1 -6.4,-2.1 -8.3,0 -12.4,7.4 -12.4,14.5 0,7.1 4,14.4 12.4,14.4 2.4,0 4.7,-0.6 6.7,-1.9 1.5,-0.9 2.7,-1.4 3.7,-1.4 z M 232,207.9 c -4.3,0 -5.1,-3 -5.1,-4.5 0,-1.5 0.8,-4.5 5.1,-4.5 h 4.3 v -6.7 c 0,-10.8 4.2,-20.4 17.3,-20.4 4.7,0 7.2,1.6 7.2,5 0,2.5 -1.7,4.6 -5.3,4.6 -6.1,0 -7.9,3.9 -7.9,10.2 v 7.4 h 6.2 c 4.3,0 5.1,3 5.1,4.5 0,1.5 -0.8,4.5 -5.1,4.5 h -6.2 v 30.7 c 0,5.4 -3.8,6.3 -5.7,6.3 -1.8,0 -5.6,-0.9 -5.6,-6.3 V 208 Z" />
	<path
   id="BOUTON_BLEU_FONCÉ"
   class="st2"
   d="m 310.5,83.3 c -23,0 -41.6,18.6 -41.6,41.6 0,23 18.6,41.6 41.6,41.6 23,0 41.6,-18.6 41.6,-41.6 0,-23 -18.6,-41.6 -41.6,-41.6 z" />
	<path
   id="connect"
   class="st2"
   d="m 303.5,232.7 c 2.9,0 4.6,2.2 4.6,4.5 0,1.6 -0.5,3.2 -3,5 -3.2,2.3 -8.2,3.3 -12.1,3.3 -13.5,0 -24.2,-8.9 -24.2,-24 0,-14.7 11,-24 24.3,-24 4.3,0 8.7,1 11.9,3.2 2.6,1.8 3.2,3.6 3.2,4.9 0,2.6 -1.9,4.9 -4.9,4.9 -1,0 -2.1,-0.3 -3.8,-1.5 -1.5,-1.1 -3.7,-2.1 -6.4,-2.1 -8.3,0 -12.5,7.5 -12.5,14.5 0,7.1 4,14.4 12.5,14.4 2.5,0 4.7,-0.6 6.7,-1.9 1.4,-0.8 2.7,-1.2 3.7,-1.2 z m 35.5,12.8 c -13.7,0 -24.6,-9.9 -24.6,-24.2 0,-14.3 11,-23.8 24.6,-23.8 13.6,0 24.6,9.5 24.6,23.8 0,14.3 -11,24.2 -24.6,24.2 z m 0,-38.7 c -9,0 -13.1,7.5 -13.1,14.5 0,7.1 4.2,14.7 13.1,14.7 8.9,0 13.1,-7.6 13.1,-14.7 0,-7.1 -4.2,-14.5 -13.1,-14.5 z m 34.3,-2.8 c 0,-5.1 3.7,-5.9 5.4,-5.9 1.7,0 5.4,0.9 5.4,5.9 v 2.2 h 0.2 c 2,-4.5 7.4,-8.6 14.1,-8.6 11.8,0 16.7,9.1 16.7,18.3 v 22.9 c 0,5.4 -3.8,6.3 -5.7,6.3 -1.9,0 -5.7,-0.9 -5.7,-6.3 v -19.6 c 0,-5.4 -1.2,-12.1 -8.5,-12.1 -7.2,0 -10.6,6.2 -10.6,12.3 v 19.4 c 0,5.4 -3.8,6.3 -5.7,6.3 -1.9,0 -5.7,-0.9 -5.7,-6.3 z m 53,0 c 0,-5.1 3.7,-5.9 5.4,-5.9 1.7,0 5.4,0.9 5.4,5.9 v 2.2 h 0.2 c 2,-4.5 7.4,-8.6 14.1,-8.6 11.8,0 16.7,9.1 16.7,18.3 v 22.9 c 0,5.4 -3.8,6.3 -5.7,6.3 -1.9,0 -5.7,-0.9 -5.7,-6.3 v -19.6 c 0,-5.4 -1.2,-12.1 -8.5,-12.1 -7.2,0 -10.6,6.2 -10.6,12.3 v 19.4 c 0,5.4 -3.8,6.3 -5.7,6.3 -1.9,0 -5.7,-0.9 -5.7,-6.3 z m 62.4,21.1 c 0.5,6.4 6.3,11.1 12.9,11.1 4.7,0 7.6,-1.5 10.4,-3.9 1.6,-1.3 2.6,-1.6 3.9,-1.6 2.5,0 4.5,1.8 4.5,4.5 0,0.9 -0.4,2.6 -1.9,4.1 -4.4,4.2 -9.5,6.1 -16.8,6.1 -14,0 -24.4,-9 -24.4,-23.7 0,-14.6 10.3,-24.3 24,-24.3 11,0 19.8,6.2 21.6,19.6 0.1,0.9 0.2,1.6 0.2,2.4 0,4 -2.2,5.7 -6,5.7 z m 23.2,-8.1 c 0,-5.9 -3.3,-11 -10.7,-11 -6.7,0 -12.1,4.6 -12.6,11 z m 53,15.7 c 2.9,0 4.6,2.2 4.6,4.5 0,1.6 -0.5,3.2 -3,5 -3.2,2.3 -8.2,3.3 -12.1,3.3 -13.5,0 -24.2,-8.9 -24.2,-24 0,-14.7 11,-24 24.3,-24 4.3,0 8.7,1 11.9,3.2 2.6,1.8 3.2,3.6 3.2,4.9 0,2.6 -1.9,4.9 -4.9,4.9 -1,0 -2.1,-0.3 -3.8,-1.5 -1.5,-1.1 -3.7,-2.1 -6.4,-2.1 -8.3,0 -12.5,7.5 -12.5,14.5 0,7.1 4,14.4 12.5,14.4 2.5,0 4.7,-0.6 6.7,-1.9 1.5,-0.8 2.7,-1.2 3.7,-1.2 z m 33.4,12.4 c -12,0 -14.6,-7.4 -14.6,-16.1 V 207.9 H 580 c -4.3,0 -5.1,-3 -5.1,-4.5 0,-1.5 0.8,-4.5 5.1,-4.5 h 3.7 V 191 c 0,-5.2 3.7,-6.1 5.6,-6.1 1.9,0 5.6,0.9 5.6,6.1 v 7.8 h 7.1 c 4.3,0 5.1,3 5.1,4.5 0,1.5 -0.8,4.5 -5.1,4.5 h -7.1 V 229 c 0,4.4 1.5,6.8 4.3,6.8 0.5,0 1.1,-0.1 1.8,-0.2 0.8,-0.1 0.9,-0.1 1.3,-0.1 2.8,0 4.3,2.1 4.3,4.2 0,1.8 -1,3.3 -2.7,4.2 -1.6,0.8 -3.6,1.2 -5.6,1.2 z" />
</g>
</svg>
